PathFileType	4	(X/Y/Z)	C:\Users\italobelli\Desktop\GitHub\PTbot_officialCBL\Personal_Results\SHRUG01_noisy2.trc
DataRate	CameraRate	NumFrames	NumMarkers	Units	OrigDataRate	OrigDataStartFrame	OrigNumFrames
110.888889	110.888889	46	9	m	110.888889	63	500
Frame#	Time		gu		centelbow		EpL		centpxt8		centijc7		ij		ts		aa		ai
			X1	Y1	Z1	X2	Y2	Z2	X3	Y3	Z3	X4	Y4	Z4	X5	Y5	Z5	X6	Y6	Z6	X7	Y7	Z7	X8	Y8	Z8	X9	Y9	Z9

63	0.55912	-0.079101	-0.0098094	0.16728	-0.092529	-0.25212	0.19013	-0.071879	-0.24635	0.21429	-0.046816	-0.15316	-0.008669	-0.046816	0.031938	-0.008669	0	0	0	-0.1389	0.031581	0.058191	-0.10474	0.028833	0.17241	-0.16075	-0.079508	0.06768
64	0.56814	-0.079112	-0.0097703	0.16729	-0.092435	-0.25212	0.19015	-0.071793	-0.24635	0.21431	-0.046816	-0.15316	-0.008669	-0.046816	0.031938	-0.008669	0	0	0	-0.13886	0.031672	0.058176	-0.10474	0.028908	0.1724	-0.16074	-0.079424	0.067675
65	0.57715	-0.079123	-0.0097278	0.1673	-0.092347	-0.25212	0.19017	-0.071712	-0.24634	0.21434	-0.046816	-0.15316	-0.008669	-0.046816	0.031938	-0.008669	0	0	0	-0.13882	0.031767	0.058161	-0.10473	0.028989	0.17239	-0.16073	-0.079335	0.06767
66	0.58617	-0.079135	-0.0096821	0.16731	-0.092264	-0.25212	0.19019	-0.071637	-0.24633	0.21438	-0.046816	-0.15316	-0.008669	-0.046816	0.031938	-0.008669	0	0	0	-0.13878	0.031866	0.058145	-0.10473	0.029076	0.17238	-0.16071	-0.079241	0.067664
67	0.59519	-0.079148	-0.009633	0.16732	-0.092185	-0.25211	0.19023	-0.071567	-0.24632	0.21443	-0.046816	-0.15316	-0.008669	-0.046816	0.031938	-0.008669	0	0	0	-0.13873	0.031969	0.058128	-0.10472	0.029168	0.17237	-0.1607	-0.079143	0.067657
68	0.60421	-0.079161	-0.0095807	0.16733	-0.092111	-0.2521	0.19027	-0.071503	-0.24631	0.21448	-0.046816	-0.15316	-0.008669	-0.046816	0.031938	-0.008669	0	0	0	-0.13868	0.032076	0.05811	-0.10472	0.029266	0.17236	-0.16069	-0.079039	0.067649
69	0.61323	-0.079174	-0.0095252	0.16734	-0.092042	-0.25209	0.19032	-0.071443	-0.24629	0.21455	-0.046816	-0.15316	-0.008669	-0.046816	0.031938	-0.008669	0	0	0	-0.13863	0.032187	0.058091	-0.10471	0.02937	0.17235	-0.16067	-0.078931	0.067641
70	0.62224	-0.079188	-0.0094665	0.16736	-0.091976	-0.25208	0.19038	-0.071387	-0.24627	0.21461	-0.046816	-0.15316	-0.008669	-0.046816	0.031938	-0.008669	0	0	0	-0.13858	0.032302	0.058071	-0.1047	0.029479	0.17234	-0.16065	-0.078819	0.067632
71	0.63126	-0.079202	-0.0094046	0.16738	-0.091914	-0.25207	0.19044	-0.071335	-0.24625	0.21469	-0.046816	-0.15316	-0.008669	-0.046816	0.031938	-0.008669	0	0	0	-0.13853	0.032421	0.058051	-0.1047	0.029593	0.17233	-0.16064	-0.078702	0.067623
72	0.64028	-0.079216	-0.0093395	0.16739	-0.091855	-0.25205	0.19052	-0.071287	-0.24623	0.21477	-0.046816	-0.15316	-0.008669	-0.046816	0.031938	-0.008669	0	0	0	-0.13848	0.032543	0.058029	-0.10469	0.029713	0.17232	-0.16062	-0.078581	0.067614
73	0.6493	-0.079231	-0.0092712	0.16741	-0.091799	-0.25203	0.19059	-0.071242	-0.2462	0.21486	-0.046816	-0.15316	-0.008669	-0.046816	0.031938	-0.008669	0	0	0	-0.13842	0.03267	0.058007	-0.10468	0.029839	0.17231	-0.1606	-0.078455	0.067603
74	0.65832	-0.079246	-0.0091999	0.16743	-0.091746	-0.25201	0.19068	-0.071201	-0.24617	0.21495	-0.046816	-0.15316	-0.008669	-0.046816	0.031938	-0.008669	0	0	0	-0.13836	0.032799	0.057984	-0.10467	0.029969	0.1723	-0.16058	-0.078325	0.067593
75	0.66733	-0.079261	-0.0091255	0.16745	-0.091696	-0.25199	0.19077	-0.071162	-0.24614	0.21505	-0.046816	-0.15316	-0.008669	-0.046816	0.031938	-0.008669	0	0	0	-0.13831	0.032932	0.057961	-0.10466	0.030105	0.17229	-0.16056	-0.078191	0.067582
76	0.67635	-0.079277	-0.009048	0.16747	-0.091648	-0.25197	0.19087	-0.071126	-0.24611	0.21516	-0.046816	-0.15316	-0.008669	-0.046816	0.031938	-0.008669	0	0	0	-0.13825	0.033068	0.057936	-0.10466	0.030246	0.17228	-0.16053	-0.078053	0.06757
77	0.68537	-0.079292	-0.0089674	0.1675	-0.091602	-0.25195	0.19097	-0.071092	-0.24608	0.21527	-0.046816	-0.15316	-0.008669	-0.046816	0.031938	-0.008669	0	0	0	-0.13819	0.033208	0.057911	-0.10465	0.030392	0.17226	-0.16051	-0.077911	0.067559
78	0.69439	-0.079308	-0.0088838	0.16752	-0.091557	-0.25192	0.19108	-0.07106	-0.24604	0.21539	-0.046816	-0.15316	-0.008669	-0.046816	0.031938	-0.008669	0	0	0	-0.13812	0.033351	0.057885	-0.10464	0.030543	0.17225	-0.16048	-0.077765	0.067547
79	0.70341	-0.079324	-0.0087972	0.16754	-0.091514	-0.25189	0.1912	-0.07103	-0.246	0.21552	-0.046816	-0.15316	-0.008669	-0.046816	0.031938	-0.008669	0	0	0	-0.13806	0.033496	0.057858	-0.10463	0.030699	0.17224	-0.16046	-0.077615	0.067534
80	0.71242	-0.07934	-0.0087077	0.16757	-0.091473	-0.25186	0.19132	-0.071001	-0.24596	0.21565	-0.046816	-0.15316	-0.008669	-0.046816	0.031938	-0.008669	0	0	0	-0.138	0.033645	0.05783	-0.10462	0.03086	0.17222	-0.16043	-0.077462	0.067522
81	0.72144	-0.079356	-0.0086152	0.16759	-0.091432	-0.25183	0.19145	-0.070972	-0.24592	0.21578	-0.046816	-0.15316	-0.008669	-0.046816	0.031938	-0.008669	0	0	0	-0.13793	0.033797	0.057801	-0.1046	0.031026	0.17221	-0.16041	-0.077305	0.067509
82	0.73046	-0.079373	-0.0085197	0.16761	-0.091391	-0.2518	0.19159	-0.070945	-0.24588	0.21592	-0.046816	-0.15316	-0.008669	-0.046816	0.031938	-0.008669	0	0	0	-0.13786	0.033951	0.057772	-0.10459	0.031196	0.1722	-0.16038	-0.077144	0.067497
83	0.73948	-0.079389	-0.0084214	0.16764	-0.091351	-0.25176	0.19173	-0.070918	-0.24583	0.21607	-0.046816	-0.15316	-0.008669	-0.046816	0.031938	-0.008669	0	0	0	-0.1378	0.034108	0.057742	-0.10458	0.031371	0.17218	-0.16035	-0.07698	0.067484
84	0.7485	-0.079405	-0.0083201	0.16766	-0.091311	-0.25172	0.19187	-0.070891	-0.24578	0.21622	-0.046816	-0.15316	-0.008669	-0.046816	0.031938	-0.008669	0	0	0	-0.13773	0.034268	0.057711	-0.10457	0.031551	0.17217	-0.16032	-0.076812	0.067471
85	0.75752	-0.079421	-0.008216	0.16769	-0.091271	-0.25169	0.19203	-0.070864	-0.24573	0.21638	-0.046816	-0.15316	-0.008669	-0.046816	0.031938	-0.008669	0	0	0	-0.13766	0.03443	0.057679	-0.10456	0.031735	0.17215	-0.16029	-0.076641	0.067458
86	0.76653	-0.079437	-0.0081091	0.16772	-0.09123	-0.25165	0.19218	-0.070836	-0.24568	0.21654	-0.046816	-0.15316	-0.008669	-0.046816	0.031938	-0.008669	0	0	0	-0.13759	0.034595	0.057647	-0.10454	0.031924	0.17214	-0.16026	-0.076467	0.067445
87	0.77555	-0.079453	-0.0079993	0.16774	-0.091188	-0.25161	0.19234	-0.070808	-0.24563	0.21671	-0.046816	-0.15316	-0.008669	-0.046816	0.031938	-0.008669	0	0	0	-0.13752	0.034762	0.057613	-0.10453	0.032117	0.17212	-0.16022	-0.07629	0.067432
88	0.78457	-0.079469	-0.0078868	0.16777	-0.091145	-0.25156	0.19251	-0.070778	-0.24557	0.21688	-0.046816	-0.15316	-0.008669	-0.046816	0.031938	-0.008669	0	0	0	-0.13744	0.034931	0.057579	-0.10452	0.032315	0.1721	-0.16019	-0.076109	0.067419
89	0.79359	-0.079485	-0.0077715	0.16779	-0.091101	-0.25152	0.19268	-0.070747	-0.24552	0.21705	-0.046816	-0.15316	-0.008669	-0.046816	0.031938	-0.008669	0	0	0	-0.13737	0.035103	0.057545	-0.1045	0.032517	0.17209	-0.16016	-0.075926	0.067406
90	0.80261	-0.079501	-0.0076534	0.16782	-0.091055	-0.25148	0.19286	-0.070714	-0.24546	0.21723	-0.046816	-0.15316	-0.008669	-0.046816	0.031938	-0.008669	0	0	0	-0.1373	0.035277	0.057509	-0.10449	0.032723	0.17207	-0.16012	-0.07574	0.067393
91	0.81162	-0.079516	-0.0075326	0.16784	-0.091007	-0.25143	0.19304	-0.070679	-0.2454	0.21742	-0.046816	-0.15316	-0.008669	-0.046816	0.031938	-0.008669	0	0	0	-0.13722	0.035452	0.057473	-0.10448	0.032933	0.17205	-0.16009	-0.07555	0.06738
92	0.82064	-0.079531	-0.0074091	0.16787	-0.090957	-0.25138	0.19323	-0.070642	-0.24533	0.21761	-0.046816	-0.15316	-0.008669	-0.046816	0.031938	-0.008669	0	0	0	-0.13715	0.03563	0.057436	-0.10446	0.033148	0.17203	-0.16005	-0.075358	0.067368
93	0.82966	-0.079546	-0.0072829	0.16789	-0.090905	-0.25133	0.19342	-0.070602	-0.24527	0.2178	-0.046816	-0.15316	-0.008669	-0.046816	0.031938	-0.008669	0	0	0	-0.13707	0.035809	0.057398	-0.10445	0.033366	0.17201	-0.16001	-0.075164	0.067356
94	0.83868	-0.07956	-0.0071541	0.16791	-0.090849	-0.25128	0.19361	-0.07056	-0.24521	0.218	-0.046816	-0.15316	-0.008669	-0.046816	0.031938	-0.008669	0	0	0	-0.137	0.03599	0.057359	-0.10443	0.033589	0.17199	-0.15998	-0.074967	0.067344
95	0.8477	-0.079574	-0.0070227	0.16793	-0.090791	-0.25123	0.19381	-0.070514	-0.24514	0.2182	-0.046816	-0.15316	-0.008669	-0.046816	0.031938	-0.008669	0	0	0	-0.13692	0.036173	0.05732	-0.10441	0.033815	0.17197	-0.15994	-0.074767	0.067332
96	0.85671	-0.079588	-0.0068886	0.16796	-0.090729	-0.25118	0.19401	-0.070464	-0.24507	0.2184	-0.046816	-0.15316	-0.008669	-0.046816	0.031938	-0.008669	0	0	0	-0.13684	0.036357	0.05728	-0.1044	0.034045	0.17195	-0.1599	-0.074565	0.067321
97	0.86573	-0.079601	-0.0067519	0.16798	-0.090664	-0.25113	0.19422	-0.070411	-0.245	0.21861	-0.046816	-0.15316	-0.008669	-0.046816	0.031938	-0.008669	0	0	0	-0.13677	0.036543	0.057239	-0.10438	0.034279	0.17193	-0.15986	-0.07436	0.06731
98	0.87475	-0.079614	-0.0066127	0.168	-0.090595	-0.25107	0.19443	-0.070353	-0.24493	0.21882	-0.046816	-0.15316	-0.008669	-0.046816	0.031938	-0.008669	0	0	0	-0.13669	0.03673	0.057197	-0.10436	0.034517	0.17191	-0.15982	-0.074154	0.0673
99	0.88377	-0.079627	-0.006471	0.16802	-0.090521	-0.25102	0.19464	-0.070291	-0.24486	0.21904	-0.046816	-0.15316	-0.008669	-0.046816	0.031938	-0.008669	0	0	0	-0.13661	0.036918	0.057155	-0.10435	0.034759	0.17189	-0.15978	-0.073945	0.06729
100	0.89279	-0.079638	-0.0063267	0.16804	-0.090443	-0.25096	0.19486	-0.070224	-0.24479	0.21925	-0.046816	-0.15316	-0.008669	-0.046816	0.031938	-0.008669	0	0	0	-0.13653	0.037107	0.057111	-0.10433	0.035004	0.17187	-0.15974	-0.073734	0.06728
101	0.9018	-0.07965	-0.00618	0.16805	-0.090361	-0.2509	0.19508	-0.070152	-0.24471	0.21947	-0.046816	-0.15316	-0.008669	-0.046816	0.031938	-0.008669	0	0	0	-0.13645	0.037298	0.057068	-0.10431	0.035252	0.17185	-0.1597	-0.073521	0.067271
102	0.91082	-0.079661	-0.0060307	0.16807	-0.090273	-0.25084	0.1953	-0.070075	-0.24463	0.2197	-0.046816	-0.15316	-0.008669	-0.046816	0.031938	-0.008669	0	0	0	-0.13638	0.03749	0.057023	-0.10429	0.035504	0.17182	-0.15966	-0.073306	0.067262
103	0.91984	-0.079671	-0.0058791	0.16808	-0.09018	-0.25079	0.19553	-0.069992	-0.24456	0.21992	-0.046816	-0.15316	-0.008669	-0.046816	0.031938	-0.008669	0	0	0	-0.1363	0.037682	0.056978	-0.10428	0.03576	0.1718	-0.15962	-0.073089	0.067254
104	0.92886	-0.079681	-0.005725	0.1681	-0.090082	-0.25073	0.19576	-0.069903	-0.24448	0.22015	-0.046816	-0.15316	-0.008669	-0.046816	0.031938	-0.008669	0	0	0	-0.13622	0.037876	0.056932	-0.10426	0.036018	0.17178	-0.15957	-0.07287	0.067247
105	0.93788	-0.07969	-0.0055685	0.16811	-0.089977	-0.25066	0.19599	-0.069808	-0.2444	0.22038	-0.046816	-0.15316	-0.008669	-0.046816	0.031938	-0.008669	0	0	0	-0.13614	0.03807	0.056885	-0.10424	0.03628	0.17175	-0.15953	-0.07265	0.06724
106	0.94689	-0.079698	-0.0054096	0.16812	-0.089867	-0.2506	0.19623	-0.069706	-0.24432	0.22062	-0.046816	-0.15316	-0.008669	-0.046816	0.031938	-0.008669	0	0	0	-0.13606	0.038265	0.056837	-0.10422	0.036546	0.17173	-0.15949	-0.072428	0.067234
107	0.95591	-0.079706	-0.0052484	0.16813	-0.08975	-0.25054	0.19647	-0.069598	-0.24424	0.22085	-0.046816	-0.15316	-0.008669	-0.046816	0.031938	-0.008669	0	0	0	-0.13598	0.03846	0.056789	-0.1042	0.036814	0.1717	-0.15944	-0.072205	0.067229
108	0.96493	-0.079713	-0.0050848	0.16814	-0.089626	-0.25047	0.19671	-0.069482	-0.24415	0.22109	-0.046816	-0.15316	-0.008669	-0.046816	0.031938	-0.008669	0	0	0	-0.1359	0.038656	0.05674	-0.10418	0.037085	0.17168	-0.1594	-0.07198	0.067224
